<svg width="20" height="20" viewBox="0 0 20 20" fill="none" xmlns="http://www.w3.org/2000/svg">
<g clip-path="url(#clip0_1258_6421)">
<path d="M1.21268 2.15938C0.887676 1.90313 0.415801 1.9625 0.159551 2.2875C-0.0966993 2.6125 -0.0373243 3.08438 0.287676 3.34063L18.7877 17.8406C19.1127 18.0969 19.5846 18.0375 19.8408 17.7125C20.0971 17.3875 20.0377 16.9156 19.7127 16.6594L16.9783 14.5156C16.9939 14.4625 17.0002 14.4062 17.0002 14.3469C17.0002 13.4844 16.6564 12.6562 16.0471 12.0437L16.0002 12C15.3596 11.3594 15.0002 10.4906 15.0002 9.58437V8.5C15.0002 6.08125 13.2814 4.0625 11.0002 3.6V3C11.0002 2.44688 10.5533 2 10.0002 2C9.44705 2 9.00018 2.44688 9.00018 3V3.6C7.66893 3.86875 6.53143 4.66875 5.81268 5.76563L1.21268 2.15938ZM5.00018 9.58437C5.00018 10.4906 4.6408 11.3594 4.00018 12L3.9533 12.0469C3.34393 12.6562 3.00018 13.4844 3.00018 14.35C3.00018 14.7094 3.2908 15 3.65018 15H12.6939L5.00018 8.94063V9.5875V9.58437ZM12.0002 16H10.0002H8.00018C8.00018 16.5312 8.20955 17.0406 8.58455 17.4156C8.95955 17.7906 9.46893 18 10.0002 18C10.5314 18 11.0408 17.7906 11.4158 17.4156C11.7908 17.0406 12.0002 16.5312 12.0002 16Z" fill="#6F3FF1"/>
</g>
<defs>
<clipPath id="clip0_1258_6421">
<path d="M0 2H20V18H0V2Z" fill="white"/>
</clipPath>
</defs>
</svg>
