<svg width="32" height="33" viewBox="0 0 32 33" fill="none" xmlns="http://www.w3.org/2000/svg">
<path d="M24 0.5C28.4183 0.5 32 4.08172 32 8.5V24.5C32 28.9183 28.4183 32.5 24 32.5H8C3.58172 32.5 0 28.9183 0 24.5V8.5C0 4.08172 3.58172 0.5 8 0.5H24Z" fill="#F3E8FF"/>
<path d="M24 0.5C28.4183 0.5 32 4.08172 32 8.5V24.5C32 28.9183 28.4183 32.5 24 32.5H8C3.58172 32.5 0 28.9183 0 24.5V8.5C0 4.08172 3.58172 0.5 8 0.5H24Z" stroke="#E5E7EB"/>
<path d="M24 26.5H8V6.5H24V26.5Z" stroke="#E5E7EB"/>
<g clip-path="url(#clip0_229_16293)">
<path d="M13.75 10H18.25C18.3875 10 18.5 10.1125 18.5 10.25V11.5H13.5V10.25C13.5 10.1125 13.6125 10 13.75 10ZM12 10.25V11.5H10C8.89688 11.5 8 12.3969 8 13.5V16.5H14H18H24V13.5C24 12.3969 23.1031 11.5 22 11.5H20V10.25C20 9.28438 19.2156 8.5 18.25 8.5H13.75C12.7844 8.5 12 9.28438 12 10.25ZM24 17.5H18V18.5C18 19.0531 17.5531 19.5 17 19.5H15C14.4469 19.5 14 19.0531 14 18.5V17.5H8V21.5C8 22.6031 8.89688 23.5 10 23.5H22C23.1031 23.5 24 22.6031 24 21.5V17.5Z" fill="#9333EA"/>
</g>
<defs>
<clipPath id="clip0_229_16293">
<path d="M8 8.5H24V24.5H8V8.5Z" fill="white"/>
</clipPath>
</defs>
</svg>
