<svg width="32" height="32" viewBox="0 0 32 32" fill="none" xmlns="http://www.w3.org/2000/svg">
<path d="M24 0C28.4183 0 32 3.58172 32 8V24C32 28.4183 28.4183 32 24 32H8C3.58172 32 0 28.4183 0 24V8C0 3.58172 3.58172 0 8 0H24Z" fill="#DBFAE6"/>
<path d="M24 0C28.4183 0 32 3.58172 32 8V24C32 28.4183 28.4183 32 24 32H8C3.58172 32 0 28.4183 0 24V8C0 3.58172 3.58172 0 8 0H24Z" stroke="#E5E7EB"/>
<g clip-path="url(#clip0_229_16315)">
<path d="M10.5 8C11.163 8 11.7989 8.26339 12.2678 8.73223C12.7366 9.20107 13 9.83696 13 10.5C13 11.163 12.7366 11.7989 12.2678 12.2678C11.7989 12.7366 11.163 13 10.5 13C9.83696 13 9.20107 12.7366 8.73223 12.2678C8.26339 11.7989 8 11.163 8 10.5C8 9.83696 8.26339 9.20107 8.73223 8.73223C9.20107 8.26339 9.83696 8 10.5 8ZM22 8C22.663 8 23.2989 8.26339 23.7678 8.73223C24.2366 9.20107 24.5 9.83696 24.5 10.5C24.5 11.163 24.2366 11.7989 23.7678 12.2678C23.2989 12.7366 22.663 13 22 13C21.337 13 20.7011 12.7366 20.2322 12.2678C19.7634 11.7989 19.5 11.163 19.5 10.5C19.5 9.83696 19.7634 9.20107 20.2322 8.73223C20.7011 8.26339 21.337 8 22 8ZM6 17.3344C6 15.4938 7.49375 14 9.33437 14H10.6687C11.1656 14 11.6375 14.1094 12.0625 14.3031C12.0219 14.5281 12.0031 14.7625 12.0031 15C12.0031 16.1938 12.5281 17.2656 13.3562 18C13.35 18 13.3438 18 13.3344 18H6.66562C6.3 18 6 17.7 6 17.3344ZM18.6656 18C18.6594 18 18.6531 18 18.6438 18C19.475 17.2656 19.9969 16.1938 19.9969 15C19.9969 14.7625 19.975 14.5312 19.9375 14.3031C20.3625 14.1062 20.8344 14 21.3313 14H22.6656C24.5063 14 26 15.4938 26 17.3344C26 17.7031 25.7 18 25.3344 18H18.6656ZM13 15C13 14.2044 13.3161 13.4413 13.8787 12.8787C14.4413 12.3161 15.2044 12 16 12C16.7956 12 17.5587 12.3161 18.1213 12.8787C18.6839 13.4413 19 14.2044 19 15C19 15.7956 18.6839 16.5587 18.1213 17.1213C17.5587 17.6839 16.7956 18 16 18C15.2044 18 14.4413 17.6839 13.8787 17.1213C13.3161 16.5587 13 15.7956 13 15ZM10 23.1656C10 20.8656 11.8656 19 14.1656 19H17.8344C20.1344 19 22 20.8656 22 23.1656C22 23.625 21.6281 24 21.1656 24H10.8344C10.375 24 10 23.6281 10 23.1656Z" fill="#22C55E"/>
</g>
<defs>
<clipPath id="clip0_229_16315">
<path d="M6 8H26V24H6V8Z" fill="white"/>
</clipPath>
</defs>
</svg>
