<svg width="32" height="32" viewBox="0 0 32 32" fill="none" xmlns="http://www.w3.org/2000/svg">
<path d="M24 0C28.4183 0 32 3.58172 32 8V24C32 28.4183 28.4183 32 24 32H8C3.58172 32 0 28.4183 0 24V8C0 3.58172 3.58172 0 8 0H24Z" fill="#FFEDD5"/>
<path d="M24 0C28.4183 0 32 3.58172 32 8V24C32 28.4183 28.4183 32 24 32H8C3.58172 32 0 28.4183 0 24V8C0 3.58172 3.58172 0 8 0H24Z" stroke="#E5E7EB"/>
<path d="M23 26H9V6H23V26Z" stroke="#E5E7EB"/>
<g clip-path="url(#clip0_229_16304)">
<path d="M12 9V10H10.5C9.67188 10 9 10.6719 9 11.5V13H23V11.5C23 10.6719 22.3281 10 21.5 10H20V9C20 8.44687 19.5531 8 19 8C18.4469 8 18 8.44687 18 9V10H14V9C14 8.44687 13.5531 8 13 8C12.4469 8 12 8.44687 12 9ZM23 14H9V22.5C9 23.3281 9.67188 24 10.5 24H21.5C22.3281 24 23 23.3281 23 22.5V14Z" fill="#EA580C"/>
</g>
<defs>
<clipPath id="clip0_229_16304">
<path d="M9 8H23V24H9V8Z" fill="white"/>
</clipPath>
</defs>
</svg>
