<svg width="20" height="20" viewBox="0 0 20 20" fill="none" xmlns="http://www.w3.org/2000/svg">
<path d="M11.4596 8.33335C11.4596 8.67853 11.7395 8.95835 12.0846 8.95835H12.6591L10.9819 10.6355C10.9006 10.7168 10.7687 10.7168 10.6873 10.6355L9.36583 9.314C8.79632 8.74449 7.87295 8.74449 7.30344 9.314L5.39269 11.2247C5.14862 11.4688 5.14862 11.8646 5.39269 12.1086C5.63677 12.3527 6.0325 12.3527 6.27658 12.1086L8.18732 10.1979C8.26868 10.1165 8.40059 10.1165 8.48195 10.1979L9.80344 11.5194C10.373 12.0889 11.2963 12.0889 11.8658 11.5194L13.543 9.84224V10.4167C13.543 10.7619 13.8228 11.0417 14.168 11.0417C14.5131 11.0417 14.793 10.7619 14.793 10.4167V8.33335C14.793 7.98818 14.5131 7.70835 14.168 7.70835H12.0846C11.7395 7.70835 11.4596 7.98818 11.4596 8.33335Z" fill="#F79009"/>
<path fill-rule="evenodd" clip-rule="evenodd" d="M9.95349 1.04169C8.02983 1.04168 6.5223 1.04167 5.34606 1.19981C4.14211 1.36168 3.19209 1.69946 2.44642 2.44513C1.70074 3.19081 1.36296 4.14083 1.20109 5.34478C1.04295 6.52101 1.04296 8.02854 1.04297 9.9522V10.0478C1.04296 11.9715 1.04295 13.479 1.20109 14.6553C1.36296 15.8592 1.70074 16.8092 2.44642 17.5549C3.19209 18.3006 4.14211 18.6384 5.34606 18.8002C6.5223 18.9584 8.02983 18.9584 9.95349 18.9584H10.0491C11.9728 18.9584 13.4803 18.9584 14.6565 18.8002C15.8605 18.6384 16.8105 18.3006 17.5562 17.5549C18.3019 16.8092 18.6396 15.8592 18.8015 14.6553C18.9597 13.479 18.9596 11.9715 18.9596 10.0478V9.95221C18.9596 8.02855 18.9597 6.52102 18.8015 5.34478C18.6396 4.14083 18.3019 3.19081 17.5562 2.44513C16.8105 1.69946 15.8605 1.36168 14.6565 1.19981C13.4803 1.04167 11.9728 1.04168 10.0491 1.04169H9.95349ZM3.3303 3.32902C3.80501 2.8543 4.44728 2.58189 5.51262 2.43866C6.59593 2.29301 8.01945 2.29169 10.0013 2.29169C11.9832 2.29169 13.4067 2.29301 14.49 2.43866C15.5553 2.58189 16.1976 2.8543 16.6723 3.32902C17.147 3.80373 17.4194 4.446 17.5627 5.51133C17.7083 6.59465 17.7096 8.01817 17.7096 10C17.7096 11.9819 17.7083 13.4054 17.5627 14.4887C17.4194 15.554 17.147 16.1963 16.6723 16.671C16.1976 17.1457 15.5553 17.4181 14.49 17.5614C13.4067 17.707 11.9832 17.7084 10.0013 17.7084C8.01945 17.7084 6.59593 17.707 5.51262 17.5614C4.44728 17.4181 3.80501 17.1457 3.3303 16.671C2.85559 16.1963 2.58318 15.554 2.43994 14.4887C2.2943 13.4054 2.29297 11.9819 2.29297 10C2.29297 8.01817 2.2943 6.59465 2.43994 5.51133C2.58318 4.446 2.85559 3.80373 3.3303 3.32902Z" fill="#F79009"/>
</svg>
