<svg width="14" height="112" viewBox="0 0 14 112" fill="none" xmlns="http://www.w3.org/2000/svg">
<path d="M1.40039 11.9678C1.4004 15.8666 2.37439 17.8627 3.75391 18.9307C5.17604 20.0314 7.20801 20.2998 9.7002 20.2998H12.7002L12.8408 20.3145C13.1599 20.3796 13.4004 20.6617 13.4004 21C13.4004 21.3383 13.1599 21.6204 12.8408 21.6855L12.7002 21.7002H9.7002C7.19266 21.7002 4.72432 21.4521 2.89648 20.0371C2.31399 19.5861 1.81363 19.0308 1.40039 18.3564V55.9678C1.40039 56.3279 1.41156 56.6716 1.42773 57H1.7002V59.2393C2.08935 61.0819 2.82943 62.2149 3.75391 62.9307C5.17604 64.0314 7.20801 64.2998 9.7002 64.2998H12.7002L12.8408 64.3145C13.1599 64.3796 13.4004 64.6617 13.4004 65C13.4004 65.3383 13.1599 65.6204 12.8408 65.6855L12.7002 65.7002H9.7002C7.19266 65.7002 4.72432 65.4521 2.89648 64.0371C2.44825 63.69 2.04896 63.2809 1.7002 62.8037V101.968C1.7002 105.867 2.6742 107.863 4.05371 108.931C5.47585 110.032 7.50775 110.3 10 110.3H13L13.1406 110.314C13.4598 110.38 13.7002 110.662 13.7002 111C13.7002 111.338 13.4598 111.62 13.1406 111.686L13 111.7H10C7.49241 111.7 5.02414 111.452 3.19629 110.037C1.32597 108.589 0.299811 106.069 0.299805 101.968V59.3867C0.102073 58.3931 1.80259e-06 57.2588 0 55.9678V0H1.40039V11.9678Z" fill="#242220" fill-opacity="0.16"/>
</svg>
