<svg width="17" height="17" viewBox="0 0 17 17" fill="none" xmlns="http://www.w3.org/2000/svg">
<path d="M8.5 16.3457C10.6217 16.3457 12.6566 15.5028 14.1569 14.0026C15.6571 12.5023 16.5 10.4674 16.5 8.3457C16.5 6.22397 15.6571 4.18914 14.1569 2.68885C12.6566 1.18856 10.6217 0.345703 8.5 0.345703C6.37827 0.345703 4.34344 1.18856 2.84315 2.68885C1.34285 4.18914 0.5 6.22397 0.5 8.3457C0.5 10.4674 1.34285 12.5023 2.84315 14.0026C4.34344 15.5028 6.37827 16.3457 8.5 16.3457ZM7.75 11.0957V9.0957H5.75C5.33437 9.0957 5 8.76133 5 8.3457C5 7.93008 5.33437 7.5957 5.75 7.5957H7.75V5.5957C7.75 5.18008 8.08437 4.8457 8.5 4.8457C8.91562 4.8457 9.25 5.18008 9.25 5.5957V7.5957H11.25C11.6656 7.5957 12 7.93008 12 8.3457C12 8.76133 11.6656 9.0957 11.25 9.0957H9.25V11.0957C9.25 11.5113 8.91562 11.8457 8.5 11.8457C8.08437 11.8457 7.75 11.5113 7.75 11.0957Z" fill="#2563EB"/>
</svg>
