<svg width="21" height="21" viewBox="0 0 21 21" fill="none" xmlns="http://www.w3.org/2000/svg">
<g clip-path="url(#clip0_229_17997)">
<g clip-path="url(#clip1_229_17997)">
<path d="M3.5 6.3457C3.5 5.28484 3.92143 4.26742 4.67157 3.51728C5.42172 2.76713 6.43913 2.3457 7.5 2.3457C8.56087 2.3457 9.57828 2.76713 10.3284 3.51728C11.0786 4.26742 11.5 5.28484 11.5 6.3457C11.5 7.40657 11.0786 8.42399 10.3284 9.17413C9.57828 9.92428 8.56087 10.3457 7.5 10.3457C6.43913 10.3457 5.42172 9.92428 4.67157 9.17413C3.92143 8.42399 3.5 7.40657 3.5 6.3457ZM0.5 17.4176C0.5 14.3395 2.99375 11.8457 6.07188 11.8457H8.92813C12.0063 11.8457 14.5 14.3395 14.5 17.4176C14.5 17.9301 14.0844 18.3457 13.5719 18.3457H1.42813C0.915625 18.3457 0.5 17.9301 0.5 17.4176ZM16.25 12.0957V10.0957H14.25C13.8344 10.0957 13.5 9.76133 13.5 9.3457C13.5 8.93008 13.8344 8.5957 14.25 8.5957H16.25V6.5957C16.25 6.18008 16.5844 5.8457 17 5.8457C17.4156 5.8457 17.75 6.18008 17.75 6.5957V8.5957H19.75C20.1656 8.5957 20.5 8.93008 20.5 9.3457C20.5 9.76133 20.1656 10.0957 19.75 10.0957H17.75V12.0957C17.75 12.5113 17.4156 12.8457 17 12.8457C16.5844 12.8457 16.25 12.5113 16.25 12.0957Z" fill="#16A34A"/>
</g>
</g>
<defs>
<clipPath id="clip0_229_17997">
<rect width="20" height="20" fill="white" transform="translate(0.5 0.345703)"/>
</clipPath>
<clipPath id="clip1_229_17997">
<path d="M0.5 2.3457H20.5V18.3457H0.5V2.3457Z" fill="white"/>
</clipPath>
</defs>
</svg>
