<svg width="19" height="17" viewBox="0 0 19 17" fill="none" xmlns="http://www.w3.org/2000/svg">
<path d="M0.5 2.3457C0.5 1.24258 1.39688 0.345703 2.5 0.345703H7.5V4.3457C7.5 4.89883 7.94688 5.3457 8.5 5.3457H12.5V9.3457H7.25C6.83437 9.3457 6.5 9.68008 6.5 10.0957C6.5 10.5113 6.83437 10.8457 7.25 10.8457H12.5V14.3457C12.5 15.4488 11.6031 16.3457 10.5 16.3457H2.5C1.39688 16.3457 0.5 15.4488 0.5 14.3457V2.3457ZM12.5 10.8457V9.3457H15.9406L14.7219 8.12695C14.4281 7.8332 14.4281 7.3582 14.7219 7.06758C15.0156 6.77695 15.4906 6.77383 15.7812 7.06758L18.2812 9.56758C18.575 9.86133 18.575 10.3363 18.2812 10.627L15.7812 13.127C15.4875 13.4207 15.0125 13.4207 14.7219 13.127C14.4313 12.8332 14.4281 12.3582 14.7219 12.0676L15.9406 10.8488H12.5V10.8457ZM12.5 4.3457H8.5V0.345703L12.5 4.3457Z" fill="#9333EA"/>
</svg>
